<svg width="110" height="110" viewBox="0 0 110 110" fill="none" xmlns="http://www.w3.org/2000/svg">
<g filter="url(#filter0_d_130_68)">
<rect x="25" y="15" width="60" height="60" rx="10" fill="white"/>
</g>
<path d="M55 31C46.7125 31 40 37.6 40 45.74C40 52.2537 44.2975 57.7775 50.2563 59.725C51.0063 59.8637 51.2812 59.4075 51.2812 59.0163C51.2812 58.6663 51.2688 57.7388 51.2625 56.51C47.09 57.3988 46.21 54.5325 46.21 54.5325C45.5275 52.8313 44.5412 52.3763 44.5412 52.3763C43.1825 51.4625 44.6463 51.4813 44.6463 51.4813C46.1525 51.5838 46.9437 53 46.9437 53C48.2812 55.2538 50.455 54.6025 51.3125 54.2262C51.4475 53.2725 51.8338 52.6238 52.2625 52.255C48.9313 51.8863 45.43 50.6188 45.43 44.9713C45.43 43.3625 46.0113 42.0475 46.9738 41.0162C46.805 40.6437 46.2987 39.145 47.105 37.115C47.105 37.115 48.3613 36.72 51.23 38.6262C52.43 38.2987 53.705 38.1362 54.98 38.1287C56.255 38.1362 57.53 38.2987 58.73 38.6262C61.58 36.72 62.8362 37.115 62.8362 37.115C63.6425 39.145 63.1362 40.6437 62.9862 41.0162C63.9425 42.0475 64.5238 43.3625 64.5238 44.9713C64.5238 50.6338 61.0175 51.88 57.68 52.2425C58.205 52.685 58.6925 53.5888 58.6925 54.97C58.6925 56.9425 58.6737 58.5275 58.6737 59.0063C58.6737 59.3925 58.9362 59.8538 59.705 59.7063C65.7063 57.7713 70 52.2438 70 45.74C70 37.6 63.2838 31 55 31Z" fill="#6D61B3"/>
<defs>
<filter id="filter0_d_130_68" x="0" y="0" width="110" height="110" filterUnits="userSpaceOnUse" color-interpolation-filters="sRGB">
<feFlood flood-opacity="0" result="BackgroundImageFix"/>
<feColorMatrix in="SourceAlpha" type="matrix" values="0 0 0 0 0 0 0 0 0 0 0 0 0 0 0 0 0 0 127 0" result="hardAlpha"/>
<feOffset dy="10"/>
<feGaussianBlur stdDeviation="12.5"/>
<feColorMatrix type="matrix" values="0 0 0 0 0.427451 0 0 0 0 0.380392 0 0 0 0 0.698039 0 0 0 0.3 0"/>
<feBlend mode="normal" in2="BackgroundImageFix" result="effect1_dropShadow_130_68"/>
<feBlend mode="normal" in="SourceGraphic" in2="effect1_dropShadow_130_68" result="shape"/>
</filter>
</defs>
</svg>
