<svg width="110" height="110" viewBox="0 0 110 110" fill="none" xmlns="http://www.w3.org/2000/svg">
<g filter="url(#filter0_d_130_66)">
<rect x="25" y="15" width="60" height="60" rx="10" fill="white"/>
</g>
<path d="M54.679 53.0452H56.4716C56.4716 53.0452 57.0135 52.9852 57.2892 52.687C57.5442 52.4132 57.5348 51.8995 57.5348 51.8995C57.5348 51.8995 57.4992 49.4936 58.6168 49.1392C59.7175 48.7905 61.1313 51.4644 62.6296 52.4939C63.7622 53.2721 64.6229 53.1014 64.6229 53.1014L68.63 53.0452C68.63 53.0452 70.7264 52.9158 69.7326 51.2675C69.652 51.1325 69.1532 50.0487 66.753 47.821C64.2403 45.4884 64.5778 45.8671 67.6043 41.8337C69.4476 39.3773 70.1845 37.8772 69.9539 37.2359C69.7345 36.6246 68.3788 36.7858 68.3788 36.7858L63.8709 36.8121C63.8709 36.8121 63.5371 36.7671 63.2878 36.9152C63.0459 37.0615 62.8902 37.399 62.8902 37.399C62.8902 37.399 62.1758 39.3004 61.2232 40.9168C59.215 44.3276 58.4105 44.5077 58.0824 44.2958C57.3192 43.8026 57.5105 42.3119 57.5105 41.2543C57.5105 37.9484 58.0111 36.5702 56.5335 36.2139C56.0422 36.0958 55.6822 36.017 54.4277 36.0039C52.8189 35.987 51.4556 36.0095 50.685 36.3864C50.1712 36.6377 49.7755 37.1984 50.0174 37.2302C50.3156 37.2696 50.9906 37.4121 51.3488 37.8997C51.8119 38.5278 51.795 39.9417 51.795 39.9417C51.795 39.9417 52.0613 43.8326 51.1744 44.3164C50.5649 44.6483 49.7305 43.9714 47.9398 40.8755C47.0228 39.291 46.329 37.5378 46.329 37.5378C46.329 37.5378 46.1959 37.2115 45.9577 37.0371C45.669 36.8252 45.2639 36.7577 45.2639 36.7577L40.9774 36.784C40.9774 36.784 40.3342 36.8027 40.0979 37.0821C39.8879 37.3315 40.081 37.8453 40.081 37.8453C40.081 37.8453 43.4375 45.6965 47.2366 49.6549C50.7225 53.2833 54.679 53.0452 54.679 53.0452Z" fill="#1E88E5"/>
<defs>
<filter id="filter0_d_130_66" x="0" y="0" width="110" height="110" filterUnits="userSpaceOnUse" color-interpolation-filters="sRGB">
<feFlood flood-opacity="0" result="BackgroundImageFix"/>
<feColorMatrix in="SourceAlpha" type="matrix" values="0 0 0 0 0 0 0 0 0 0 0 0 0 0 0 0 0 0 127 0" result="hardAlpha"/>
<feOffset dy="10"/>
<feGaussianBlur stdDeviation="12.5"/>
<feColorMatrix type="matrix" values="0 0 0 0 0.117647 0 0 0 0 0.533333 0 0 0 0 0.898039 0 0 0 0.3 0"/>
<feBlend mode="normal" in2="BackgroundImageFix" result="effect1_dropShadow_130_66"/>
<feBlend mode="normal" in="SourceGraphic" in2="effect1_dropShadow_130_66" result="shape"/>
</filter>
</defs>
</svg>
